<svg xmlns="http://www.w3.org/2000/svg" viewBox="0 0 500 500" width="500" height="500">
  <defs>
    <linearGradient id="phoenixGradient" x1="0%" y1="0%" x2="100%" y2="100%">
      <stop offset="0%" stop-color="#7cdcff" />
      <stop offset="50%" stop-color="#00c3ff" />
      <stop offset="100%" stop-color="#0077aa" />
    </linearGradient>
    <filter id="glow" x="-20%" y="-20%" width="140%" height="140%">
      <feGaussianBlur stdDeviation="10" result="blur" />
      <feComposite in="SourceGraphic" in2="blur" operator="over" />
    </filter>
  </defs>
  
  <!-- Circular border -->
  <circle cx="250" cy="250" r="200" fill="none" stroke="url(#phoenixGradient)" stroke-width="5" opacity="0.7" />
  
  <!-- Phoenix body -->
  <path d="M250,120 
    C280,150 320,170 360,180
    C330,190 300,220 290,260
    C310,240 340,230 370,235
    C340,250 320,280 315,320
    C335,300 365,290 395,300
    C375,320 365,350 370,380
    C350,350 320,330 280,325
    C320,345 350,380 360,420
    C330,390 290,370 250,365
    C270,390 280,420 275,450
    C255,420 225,400 190,395
    C220,385 240,360 250,330
    C230,350 200,360 170,355
    C200,340 220,310 225,270
    C205,290 175,300 145,290
    C165,270 175,240 170,210
    C190,240 220,260 260,265
    C220,245 190,210 180,170
    C210,200 250,220 290,225
    C265,205 250,175 250,120"
    fill="url(#phoenixGradient)" 
    stroke="#ffffff" 
    stroke-width="3"
    filter="url(#glow)" />
  
  <!-- Infinity symbol -->
  <path d="M220,370 C220,330 280,330 300,370 C320,410 380,410 380,370 C380,330 320,330 300,370 C280,410 220,410 220,370 Z" 
    fill="none" 
    stroke="#ffffff" 
    stroke-width="5"
    opacity="0.9" />
</svg>